<svg xmlns="http://www.w3.org/2000/svg" width="62" height="59" viewBox="0 0 62 59" fill="none">
<path d="M26.7683 47.2426C26.7029 47.1768 26.6546 47.0263 26.6233 46.7913C26.5452 46.2085 26.1257 44.6185 25.27 44.7375C25.2351 44.742 25.205 44.7566 25.1797 44.7813C24.4355 45.4898 24.2135 46.6161 24.2191 47.6132C24.2198 47.6581 24.2001 47.6858 24.16 47.6963C23.7896 47.6368 23.3902 47.6502 23.051 47.5874C19.6438 46.9578 16.4363 45.7754 13.4286 44.0402C13.4085 44.029 13.3932 44.0017 13.3828 43.9583C16.8949 38.4641 21.6821 30.8746 19.7688 24.0397C19.2009 22.0118 17.523 21.4717 16.2422 20.0726C15.266 19.0048 16.6606 17.5675 17.3891 16.795C20.1105 13.9107 23.0205 11.2342 26.119 8.76536C26.5385 8.43075 27.0071 8.12533 27.5214 7.83675C28.7151 7.16752 29.9152 6.50915 31.1216 5.86163C31.2808 5.77554 31.4158 5.66063 31.5266 5.5169C32.7962 3.87303 34.1997 1.93384 35.6232 0.685207C36.4243 -0.0177074 37.2142 -0.455622 37.8367 0.779531C39.0728 3.233 39.933 6.21533 43.2409 6.30965C44.6518 6.35007 46.0434 6.20597 47.4156 5.87735C48.2089 5.68646 49.7351 5.72351 49.4115 7.02941C48.94 8.93154 48.6611 10.3067 48.5748 11.1548C48.4506 12.3832 48.3342 13.6083 48.2256 14.83C48.2251 14.8347 48.2232 14.8392 48.2201 14.8429C48.217 14.8465 48.2128 14.8491 48.2082 14.8503C48.2036 14.8515 48.1988 14.8513 48.1943 14.8497C48.1898 14.8481 48.186 14.8451 48.1832 14.8412C46.0412 11.5377 41.5217 11.6792 39.6262 15.1432C39.6091 15.1739 39.5845 15.1814 39.5525 15.1657L37.9616 14.3887C37.9289 14.373 37.9207 14.3486 37.9371 14.3157C39.1041 11.9745 38.1926 9.23584 36.1063 7.90861C33.6162 6.32312 30.3607 7.43139 29.148 10.0578C27.3373 13.98 31.0011 17.974 35.0074 16.8275C35.0476 16.8163 35.065 16.8313 35.0598 16.8725C34.8423 18.5601 34.5701 20.204 34.4886 21.9063C34.4522 22.6743 34.4871 23.2343 34.5935 23.5861C34.7043 23.9506 34.9669 24.1629 35.3811 24.2227C36.4644 24.3788 38.8742 20.1445 39.3752 19.2484C39.3792 19.2416 39.3851 19.236 39.3921 19.2322C39.3992 19.2285 39.4071 19.2268 39.415 19.2272C39.4229 19.2277 39.4306 19.2303 39.4371 19.2349C39.4437 19.2394 39.4489 19.2456 39.4521 19.2529C40.8355 22.3532 44.4893 23.2997 47.1456 21.1394C47.1524 21.1339 47.1607 21.1307 47.1694 21.1301C47.178 21.1296 47.1867 21.1317 47.1941 21.1362C47.2015 21.1408 47.2074 21.1475 47.2109 21.1555C47.2144 21.1634 47.2154 21.1723 47.2137 21.1809C46.2431 25.9755 44.6332 30.7096 42.1977 34.9663C39.0817 40.4134 34.7664 44.3052 29.2841 47.2662C29.2765 47.2703 29.268 47.2725 29.2593 47.2725C29.2507 47.2725 29.2422 47.2703 29.2346 47.2662C29.227 47.2621 29.2205 47.2562 29.2157 47.2489C29.2109 47.2417 29.208 47.2333 29.2071 47.2247C29.148 46.5846 28.7531 44.66 27.9175 44.6769C27.0796 44.6949 26.7851 46.6442 26.7683 47.2426Z" fill="white"/>
<path d="M30.1698 11.9978C30.1037 13.9048 31.5706 15.5042 33.4462 15.5701C35.3219 15.636 36.8961 14.1435 36.9622 12.2365C37.0284 10.3295 35.5615 8.73013 33.6858 8.6642C31.8102 8.59828 30.236 10.0908 30.1698 11.9978Z" fill="white"/>
<path d="M43.9788 20.8194C45.866 20.8194 47.396 19.2795 47.396 17.38C47.396 15.4805 45.866 13.9407 43.9788 13.9407C42.0915 13.9407 40.5615 15.4805 40.5615 17.38C40.5615 19.2795 42.0915 20.8194 43.9788 20.8194Z" fill="white"/>
<path d="M36.4741 21.4033C36.0591 21.8861 35.6039 21.2539 35.6474 20.8003C35.7434 19.8032 35.8679 18.8109 36.0212 17.8236C36.145 17.0275 36.878 16.6782 37.6243 16.9309C38.5604 17.2464 38.4923 18.0122 38.1342 18.7904C37.679 19.7755 37.1257 20.6465 36.4741 21.4033Z" fill="white"/>
<path d="M11.9064 43.0981L9.44645 47.2426C7.57997 50.5057 5.58519 53.7238 3.32266 56.7061C2.7693 57.436 2.06198 58.3276 1.27991 58.8126C-0.97816 60.2129 0.415282 53.3241 0.529078 52.7301C1.23751 49.0403 1.82546 45.7413 3.11515 41.8416C3.2825 41.3689 3.4108 40.858 3.5748 40.419C4.04634 39.1539 4.52384 37.8974 5.00729 36.6495L5.35202 35.8612C7.5465 30.5478 10.5141 25.322 14.5662 21.2595C14.5856 21.24 14.6104 21.2269 14.6375 21.2219C14.6646 21.2169 14.6926 21.2202 14.7179 21.2314C15.6115 21.6334 16.5107 22.0174 17.1589 22.7967C18.3594 24.2418 18.9038 25.5893 18.7744 27.5161C18.7112 28.4466 18.5442 29.3625 18.2734 30.2638C16.8945 34.8529 14.333 39.012 11.9064 43.0981Z" fill="white"/>
<path d="M57.3794 23.1605L61.4068 24.1846L61.9513 24.3261C61.9907 24.3365 62.0063 24.3616 61.9981 24.4013L61.8955 24.9324C60.4422 31.9309 57.2168 37.9539 52.2195 43.0016L50.5717 44.5556C50.5649 44.5623 50.5563 44.5667 50.547 44.5685C50.5378 44.5703 50.5282 44.5692 50.5195 44.5655C50.5108 44.5618 50.5033 44.5555 50.4981 44.5476C50.4929 44.5396 50.4902 44.5303 50.4902 44.5208V37.8173C50.4902 37.7821 50.5018 37.7511 50.5248 37.7241C54.0607 33.5246 56.3217 28.7086 57.308 23.2762C57.3124 23.253 57.3213 23.2324 57.3347 23.2144C57.3503 23.1935 57.3652 23.1755 57.3794 23.1605Z" fill="white"/>
<path d="M47.6182 42.467L47.5624 46.6464C47.5616 46.6853 47.5453 46.716 47.5133 46.7384C42.0868 50.5135 36.0593 52.5493 29.4309 52.8457C25.7872 52.9767 22.213 52.5407 18.7084 51.5376C18.672 51.5271 18.6526 51.5028 18.6504 51.4646C18.6258 50.957 18.4317 48.9718 17.7143 49.0044C17.0807 49.0324 16.8653 50.4113 16.8285 50.8706C16.827 50.8893 16.8226 50.9058 16.8151 50.92C16.8018 50.9447 16.791 50.9589 16.7828 50.9627C16.7716 50.9678 16.7593 50.9701 16.747 50.9694C16.7347 50.9686 16.7227 50.9649 16.7122 50.9585C16.7016 50.9521 16.6928 50.9432 16.6864 50.9325C16.6801 50.9219 16.6764 50.9099 16.6757 50.8975C16.6511 50.4338 16.3957 48.8831 15.6738 49.0246C15.3079 49.0964 15.0758 49.8263 15.0379 50.134C15.0364 50.1457 15.0323 50.1569 15.0258 50.1667C15.0193 50.1765 15.0106 50.1846 15.0004 50.1905C14.9903 50.1964 14.9789 50.1998 14.9672 50.2005C14.9555 50.2012 14.9438 50.1992 14.933 50.1946C13.0223 49.3719 11.1934 48.3879 9.44629 47.2426L11.9063 43.0981C12.3882 43.3773 12.8494 43.6633 13.2897 43.956C13.3128 43.9709 13.3436 43.9717 13.3823 43.9582C13.3927 44.0016 13.408 44.0289 13.428 44.0402C16.4358 45.7754 19.6433 46.9578 23.0505 47.5873C23.3896 47.6502 23.7891 47.6367 24.1594 47.6962C24.1684 47.7868 24.2134 47.8123 24.2944 47.7726C24.3106 47.7645 24.3285 47.7605 24.3466 47.7609C24.3646 47.7613 24.3823 47.766 24.3982 47.7747C24.414 47.7834 24.4276 47.7958 24.4377 47.8109C24.4478 47.826 24.4541 47.8432 24.4562 47.8613C24.5142 48.3441 24.6994 50.3249 25.4871 50.2002C26.1118 50.1014 26.2758 48.4912 26.3483 48.0084C26.3508 47.992 26.3593 47.9772 26.3721 47.9668C26.3849 47.9564 26.4011 47.9512 26.4175 47.9522L26.9854 47.9826C27.0679 48.553 27.213 49.4636 27.5265 49.8926C27.8545 50.344 28.2528 50.061 28.4435 49.677C28.6949 49.1724 28.8169 48.6308 28.8095 48.0522C28.8087 48.011 28.8292 47.99 28.8708 47.9893L29.5692 47.9781C33.77 47.764 37.7328 46.692 41.4576 44.7622C43.6717 43.6154 45.7115 42.2028 47.5769 40.5245C47.5824 40.5194 47.5892 40.5161 47.5966 40.5149C47.604 40.5137 47.6115 40.5147 47.6183 40.5178C47.6251 40.521 47.6308 40.526 47.6348 40.5324C47.6387 40.5388 47.6407 40.5462 47.6405 40.5537L47.6182 42.467Z" fill="white"/>
</svg>