<svg width="52" height="52" viewBox="0 0 52 52" fill="none" xmlns="http://www.w3.org/2000/svg">
<g id="bxl-google 1">
<path id="Vector" d="M42.6067 18.3169H26.3943V25.0768H35.7242C34.8558 29.3724 31.2208 31.8405 26.3943 31.8405C25.0438 31.8428 23.706 31.5769 22.4579 31.0579C21.2097 30.539 20.0757 29.7772 19.1208 28.8163C18.1659 27.8555 17.4089 26.7144 16.8934 25.4585C16.3778 24.2027 16.1137 22.8568 16.1163 21.498C16.1139 20.1395 16.3782 18.7938 16.8939 17.5382C17.4096 16.2825 18.1666 15.1417 19.1215 14.181C20.0763 13.2203 21.2103 12.4588 22.4583 11.9399C23.7064 11.4211 25.0439 11.1552 26.3943 11.1575C28.8455 11.1575 31.0612 12.0331 32.7998 13.465L37.8619 8.37408C34.778 5.66897 30.8237 4.00007 26.3943 4.00007C24.1082 3.99335 21.8433 4.44141 19.7299 5.31848C17.6165 6.19556 15.6964 7.48433 14.0798 9.11069C12.4633 10.7371 11.1823 12.6689 10.3105 14.7951C9.43875 16.9213 8.9934 19.2 9.00008 21.5C8.99314 23.8001 9.43832 26.0788 10.31 28.2052C11.1817 30.3315 12.4627 32.2635 14.0793 33.8899C15.6958 35.5163 17.6161 36.8051 19.7296 37.682C21.8431 38.559 24.1081 39.0069 26.3943 38.9999C35.0914 38.9999 43 32.6358 43 21.5C43 20.4657 42.8423 19.3512 42.6067 18.3169Z" fill="white"/>
</g>
</svg>
